<mxfile host="app.diagrams.net" modified="2024-03-28T16:33:55.351Z" agent="Mozilla/5.0 (Windows NT 10.0; Win64; x64; rv:122.0) Gecko/20100101 Firefox/122.0" etag="DvFNOejL-S_MV6nPDpby" version="24.2.0" type="github">
  <diagram name="Page-1" id="xmeVvzU_CLZXRKTurQMS">
    <mxGraphModel dx="979" dy="530" grid="1" gridSize="10" guides="1" tooltips="1" connect="1" arrows="1" fold="1" page="1" pageScale="1" pageWidth="750" pageHeight="800" math="0" shadow="0">
      <root>
        <mxCell id="0" />
        <mxCell id="1" parent="0" />
        <mxCell id="CC0WaUmr5_CsGzmAjqiW-39" value="" style="endArrow=none;html=1;rounded=1;strokeWidth=10;fillColor=#fff2cc;strokeColor=#38C950;curved=0;" edge="1" parent="1">
          <mxGeometry width="50" height="50" relative="1" as="geometry">
            <mxPoint x="520" y="250" as="sourcePoint" />
            <mxPoint x="570" y="220" as="targetPoint" />
            <Array as="points">
              <mxPoint x="550" y="220" />
            </Array>
          </mxGeometry>
        </mxCell>
        <mxCell id="CC0WaUmr5_CsGzmAjqiW-35" value="" style="endArrow=none;html=1;rounded=1;strokeWidth=10;fillColor=#f8cecc;strokeColor=#EDDB6B;curved=0;" edge="1" parent="1">
          <mxGeometry width="50" height="50" relative="1" as="geometry">
            <mxPoint x="552" y="164" as="sourcePoint" />
            <mxPoint x="482" y="184" as="targetPoint" />
            <Array as="points">
              <mxPoint x="502" y="164" />
            </Array>
          </mxGeometry>
        </mxCell>
        <mxCell id="CC0WaUmr5_CsGzmAjqiW-30" value="&lt;div&gt;&lt;br/&gt;&lt;/div&gt;" style="endArrow=none;html=1;rounded=1;strokeWidth=10;fillColor=#e1d5e7;strokeColor=#D497D4;curved=0;" edge="1" parent="1">
          <mxGeometry width="50" height="50" relative="1" as="geometry">
            <mxPoint x="409" y="220" as="sourcePoint" />
            <mxPoint x="453" y="240" as="targetPoint" />
            <Array as="points">
              <mxPoint x="433" y="220" />
            </Array>
          </mxGeometry>
        </mxCell>
        <mxCell id="CC0WaUmr5_CsGzmAjqiW-29" value="" style="endArrow=none;html=1;rounded=0;strokeWidth=10;fillColor=#fff2cc;strokeColor=#D6567C;" edge="1" parent="1">
          <mxGeometry width="50" height="50" relative="1" as="geometry">
            <mxPoint x="416" y="205" as="sourcePoint" />
            <mxPoint x="560" y="205" as="targetPoint" />
          </mxGeometry>
        </mxCell>
        <mxCell id="CC0WaUmr5_CsGzmAjqiW-31" value="" style="endArrow=none;html=1;rounded=0;strokeWidth=10;fillColor=#f8cecc;strokeColor=#EDDB6B;" edge="1" parent="1">
          <mxGeometry width="50" height="50" relative="1" as="geometry">
            <mxPoint x="416" y="190" as="sourcePoint" />
            <mxPoint x="456" y="190" as="targetPoint" />
          </mxGeometry>
        </mxCell>
        <mxCell id="CC0WaUmr5_CsGzmAjqiW-21" value="" style="endArrow=none;html=1;rounded=1;strokeWidth=10;fillColor=#e1d5e7;strokeColor=#B88DCC;curved=0;" edge="1" parent="1">
          <mxGeometry width="50" height="50" relative="1" as="geometry">
            <mxPoint x="360" y="310" as="sourcePoint" />
            <mxPoint x="315" y="290" as="targetPoint" />
            <Array as="points">
              <mxPoint x="330" y="310" />
              <mxPoint x="315" y="310" />
              <mxPoint x="315" y="295" />
            </Array>
          </mxGeometry>
        </mxCell>
        <mxCell id="CC0WaUmr5_CsGzmAjqiW-20" value="" style="endArrow=none;html=1;rounded=1;strokeWidth=10;fillColor=#dae8fc;strokeColor=#7CA3DB;curved=0;" edge="1" parent="1">
          <mxGeometry width="50" height="50" relative="1" as="geometry">
            <mxPoint x="300" y="281" as="sourcePoint" />
            <mxPoint x="400" y="212" as="targetPoint" />
            <Array as="points">
              <mxPoint x="300" y="262" />
              <mxPoint x="355" y="212" />
            </Array>
          </mxGeometry>
        </mxCell>
        <mxCell id="CC0WaUmr5_CsGzmAjqiW-16" value="" style="endArrow=none;html=1;rounded=1;strokeWidth=10;fillColor=#dae8fc;strokeColor=#7CA3DB;curved=0;" edge="1" parent="1">
          <mxGeometry width="50" height="50" relative="1" as="geometry">
            <mxPoint x="390" y="370" as="sourcePoint" />
            <mxPoint x="310" y="340" as="targetPoint" />
            <Array as="points">
              <mxPoint x="340" y="370" />
            </Array>
          </mxGeometry>
        </mxCell>
        <mxCell id="CC0WaUmr5_CsGzmAjqiW-14" value="" style="endArrow=none;html=1;rounded=1;strokeWidth=10;fillColor=#f8cecc;strokeColor=#D15F5B;curved=0;" edge="1" parent="1">
          <mxGeometry width="50" height="50" relative="1" as="geometry">
            <mxPoint x="300" y="460" as="sourcePoint" />
            <mxPoint x="315" y="410" as="targetPoint" />
            <Array as="points">
              <mxPoint x="300" y="425" />
            </Array>
          </mxGeometry>
        </mxCell>
        <mxCell id="CC0WaUmr5_CsGzmAjqiW-1" value="" style="endArrow=none;html=1;rounded=0;strokeWidth=10;fillColor=#ffe6cc;strokeColor=#d79b00;" edge="1" parent="1">
          <mxGeometry width="50" height="50" relative="1" as="geometry">
            <mxPoint x="416" y="385" as="sourcePoint" />
            <mxPoint x="456" y="385" as="targetPoint" />
          </mxGeometry>
        </mxCell>
        <mxCell id="CC0WaUmr5_CsGzmAjqiW-2" value="" style="endArrow=none;html=1;rounded=0;strokeWidth=10;fillColor=#fff2cc;strokeColor=#d6b656;" edge="1" parent="1">
          <mxGeometry width="50" height="50" relative="1" as="geometry">
            <mxPoint x="416" y="370" as="sourcePoint" />
            <mxPoint x="456" y="370" as="targetPoint" />
          </mxGeometry>
        </mxCell>
        <mxCell id="CC0WaUmr5_CsGzmAjqiW-3" value="" style="endArrow=none;html=1;rounded=0;strokeWidth=10;fillColor=#f8cecc;strokeColor=#D15F5B;" edge="1" parent="1">
          <mxGeometry width="50" height="50" relative="1" as="geometry">
            <mxPoint x="400" y="385" as="sourcePoint" />
            <mxPoint x="350" y="385" as="targetPoint" />
          </mxGeometry>
        </mxCell>
        <mxCell id="CC0WaUmr5_CsGzmAjqiW-4" value="" style="endArrow=none;html=1;rounded=0;strokeWidth=10;fillColor=#dae8fc;strokeColor=#7CA3DB;" edge="1" parent="1">
          <mxGeometry width="50" height="50" relative="1" as="geometry">
            <mxPoint x="400" y="370" as="sourcePoint" />
            <mxPoint x="355" y="370" as="targetPoint" />
          </mxGeometry>
        </mxCell>
        <mxCell id="CC0WaUmr5_CsGzmAjqiW-5" value="" style="rounded=1;whiteSpace=wrap;html=1;direction=south;" vertex="1" parent="1">
          <mxGeometry x="400" y="360" width="16" height="35" as="geometry" />
        </mxCell>
        <mxCell id="CC0WaUmr5_CsGzmAjqiW-7" value="" style="endArrow=none;html=1;rounded=1;strokeWidth=10;fillColor=#fff2cc;strokeColor=#d6b656;curved=0;" edge="1" parent="1">
          <mxGeometry width="50" height="50" relative="1" as="geometry">
            <mxPoint x="426" y="370" as="sourcePoint" />
            <mxPoint x="496" y="350" as="targetPoint" />
            <Array as="points">
              <mxPoint x="476" y="370" />
            </Array>
          </mxGeometry>
        </mxCell>
        <mxCell id="CC0WaUmr5_CsGzmAjqiW-8" value="" style="rounded=1;whiteSpace=wrap;html=1;direction=south;rotation=-45;" vertex="1" parent="1">
          <mxGeometry x="492" y="336" width="16" height="20" as="geometry" />
        </mxCell>
        <mxCell id="CC0WaUmr5_CsGzmAjqiW-9" value="" style="endArrow=none;html=1;rounded=1;strokeWidth=10;fillColor=#ffe6cc;strokeColor=#d79b00;curved=0;" edge="1" parent="1">
          <mxGeometry width="50" height="50" relative="1" as="geometry">
            <mxPoint x="426" y="385" as="sourcePoint" />
            <mxPoint x="496" y="405" as="targetPoint" />
            <Array as="points">
              <mxPoint x="476" y="385" />
            </Array>
          </mxGeometry>
        </mxCell>
        <mxCell id="CC0WaUmr5_CsGzmAjqiW-10" value="" style="rounded=1;whiteSpace=wrap;html=1;direction=south;rotation=45;" vertex="1" parent="1">
          <mxGeometry x="492" y="398" width="16" height="20" as="geometry" />
        </mxCell>
        <mxCell id="CC0WaUmr5_CsGzmAjqiW-12" value="" style="endArrow=none;html=1;rounded=1;strokeWidth=10;fillColor=#f8cecc;strokeColor=#D15F5B;curved=0;" edge="1" parent="1">
          <mxGeometry width="50" height="50" relative="1" as="geometry">
            <mxPoint x="390" y="385" as="sourcePoint" />
            <mxPoint x="320" y="405" as="targetPoint" />
            <Array as="points">
              <mxPoint x="340" y="385" />
            </Array>
          </mxGeometry>
        </mxCell>
        <mxCell id="CC0WaUmr5_CsGzmAjqiW-13" value="" style="rounded=1;whiteSpace=wrap;html=1;direction=south;rotation=-45;" vertex="1" parent="1">
          <mxGeometry x="312" y="395" width="16" height="20" as="geometry" />
        </mxCell>
        <mxCell id="CC0WaUmr5_CsGzmAjqiW-15" value="" style="rounded=1;whiteSpace=wrap;html=1;direction=south;rotation=-90;" vertex="1" parent="1">
          <mxGeometry x="292" y="452" width="16" height="20" as="geometry" />
        </mxCell>
        <mxCell id="CC0WaUmr5_CsGzmAjqiW-17" value="" style="endArrow=none;html=1;rounded=1;strokeWidth=10;fillColor=#dae8fc;strokeColor=#7CA3DB;curved=0;" edge="1" parent="1">
          <mxGeometry width="50" height="50" relative="1" as="geometry">
            <mxPoint x="300" y="270" as="sourcePoint" />
            <mxPoint x="320" y="350" as="targetPoint" />
            <Array as="points">
              <mxPoint x="300" y="330" />
            </Array>
          </mxGeometry>
        </mxCell>
        <mxCell id="CC0WaUmr5_CsGzmAjqiW-18" value="" style="rounded=1;whiteSpace=wrap;html=1;direction=south;rotation=90;" vertex="1" parent="1">
          <mxGeometry x="300" y="270" width="16" height="35" as="geometry" />
        </mxCell>
        <mxCell id="CC0WaUmr5_CsGzmAjqiW-22" value="" style="rounded=1;whiteSpace=wrap;html=1;direction=south;rotation=-180;" vertex="1" parent="1">
          <mxGeometry x="356" y="300" width="16" height="20" as="geometry" />
        </mxCell>
        <mxCell id="CC0WaUmr5_CsGzmAjqiW-23" value="" style="endArrow=none;html=1;rounded=0;strokeWidth=10;fillColor=#f8cecc;strokeColor=#B0D175;" edge="1" parent="1">
          <mxGeometry width="50" height="50" relative="1" as="geometry">
            <mxPoint x="400" y="197" as="sourcePoint" />
            <mxPoint x="308" y="197" as="targetPoint" />
          </mxGeometry>
        </mxCell>
        <mxCell id="CC0WaUmr5_CsGzmAjqiW-24" value="" style="rounded=1;whiteSpace=wrap;html=1;direction=south;rotation=-180;" vertex="1" parent="1">
          <mxGeometry x="300" y="187" width="16" height="20" as="geometry" />
        </mxCell>
        <mxCell id="CC0WaUmr5_CsGzmAjqiW-28" value="" style="rounded=1;whiteSpace=wrap;html=1;direction=south;" vertex="1" parent="1">
          <mxGeometry x="400" y="180" width="16" height="50" as="geometry" />
        </mxCell>
        <mxCell id="CC0WaUmr5_CsGzmAjqiW-32" value="" style="rounded=1;whiteSpace=wrap;html=1;direction=south;rotation=45;" vertex="1" parent="1">
          <mxGeometry x="444" y="229" width="16" height="20" as="geometry" />
        </mxCell>
        <mxCell id="CC0WaUmr5_CsGzmAjqiW-33" value="" style="endArrow=none;html=1;rounded=1;strokeWidth=10;fillColor=#f8cecc;strokeColor=#EDDB6B;curved=0;" edge="1" parent="1">
          <mxGeometry width="50" height="50" relative="1" as="geometry">
            <mxPoint x="426" y="190" as="sourcePoint" />
            <mxPoint x="496" y="170" as="targetPoint" />
            <Array as="points">
              <mxPoint x="476" y="190" />
            </Array>
          </mxGeometry>
        </mxCell>
        <mxCell id="CC0WaUmr5_CsGzmAjqiW-34" value="" style="rounded=1;whiteSpace=wrap;html=1;direction=south;rotation=-45;" vertex="1" parent="1">
          <mxGeometry x="482" y="166" width="16" height="20" as="geometry" />
        </mxCell>
        <mxCell id="CC0WaUmr5_CsGzmAjqiW-36" value="" style="rounded=1;whiteSpace=wrap;html=1;direction=south;rotation=-180;" vertex="1" parent="1">
          <mxGeometry x="546" y="154" width="16" height="20" as="geometry" />
        </mxCell>
        <mxCell id="CC0WaUmr5_CsGzmAjqiW-38" value="" style="rounded=1;whiteSpace=wrap;html=1;direction=south;" vertex="1" parent="1">
          <mxGeometry x="560" y="195" width="16" height="35" as="geometry" />
        </mxCell>
        <mxCell id="CC0WaUmr5_CsGzmAjqiW-40" value="" style="rounded=1;whiteSpace=wrap;html=1;direction=south;rotation=135;" vertex="1" parent="1">
          <mxGeometry x="512" y="240" width="16" height="20" as="geometry" />
        </mxCell>
      </root>
    </mxGraphModel>
  </diagram>
</mxfile>
